<svg width="1200" height="720" viewBox="0 0 1200 720" fill="none" xmlns="http://www.w3.org/2000/svg">
  <rect width="1200" height="720" rx="48" fill="#101216"/>
  <rect x="46" y="46" width="1108" height="628" rx="34" fill="url(#bg)"/>
  <rect x="90" y="110" width="220" height="500" rx="26" fill="#121A25"/>
  <rect x="350" y="110" width="714" height="118" rx="28" fill="#101826"/>
  <rect x="350" y="264" width="336" height="346" rx="28" fill="#121B28"/>
  <rect x="728" y="264" width="336" height="160" rx="28" fill="#121B28"/>
  <rect x="728" y="450" width="336" height="160" rx="28" fill="#121B28"/>
  <rect x="120" y="152" width="160" height="14" rx="7" fill="#233047"/>
  <rect x="120" y="192" width="120" height="14" rx="7" fill="#1B9CFC"/>
  <rect x="120" y="236" width="150" height="14" rx="7" fill="#233047"/>
  <rect x="120" y="280" width="134" height="14" rx="7" fill="#233047"/>
  <rect x="120" y="324" width="170" height="14" rx="7" fill="#8B5CF6"/>
  <rect x="120" y="368" width="140" height="14" rx="7" fill="#233047"/>
  <rect x="120" y="412" width="154" height="14" rx="7" fill="#233047"/>
  <rect x="120" y="456" width="122" height="14" rx="7" fill="#233047"/>
  <rect x="384" y="144" width="210" height="16" rx="8" fill="#32435A"/>
  <rect x="384" y="188" width="120" height="42" rx="21" fill="#152338"/>
  <rect x="528" y="188" width="120" height="42" rx="21" fill="#152338"/>
  <rect x="672" y="188" width="120" height="42" rx="21" fill="#152338"/>
  <rect x="816" y="188" width="210" height="42" rx="21" fill="url(#pill)"/>
  <path d="M406 544C462.667 468.667 510.333 413 549 377C607 323 690 330 744 392C788 442 806.667 481.333 800 510" stroke="url(#line)" stroke-width="18" stroke-linecap="round"/>
  <circle cx="545" cy="378" r="18" fill="#22D3EE"/>
  <circle cx="744" cy="392" r="18" fill="#A78BFA"/>
  <circle cx="800" cy="510" r="18" fill="#60A5FA"/>
  <rect x="770" y="296" width="192" height="18" rx="9" fill="#334155"/>
  <rect x="770" y="328" width="238" height="72" rx="24" fill="url(#cardGlow)"/>
  <rect x="770" y="482" width="156" height="18" rx="9" fill="#334155"/>
  <rect x="770" y="514" width="252" height="56" rx="22" fill="#18283F"/>
  <defs>
    <linearGradient id="bg" x1="46" y1="46" x2="1110" y2="674" gradientUnits="userSpaceOnUse">
      <stop stop-color="#121826"/>
      <stop offset="1" stop-color="#0C1017"/>
    </linearGradient>
    <linearGradient id="pill" x1="816" y1="188" x2="1026" y2="230" gradientUnits="userSpaceOnUse">
      <stop stop-color="#60A5FA"/>
      <stop offset="1" stop-color="#8B5CF6"/>
    </linearGradient>
    <linearGradient id="line" x1="406" y1="377" x2="800" y2="510" gradientUnits="userSpaceOnUse">
      <stop stop-color="#22D3EE"/>
      <stop offset="1" stop-color="#8B5CF6"/>
    </linearGradient>
    <linearGradient id="cardGlow" x1="770" y1="328" x2="1008" y2="400" gradientUnits="userSpaceOnUse">
      <stop stop-color="#60A5FA"/>
      <stop offset="1" stop-color="#1E293B"/>
    </linearGradient>
  </defs>
</svg>
