<svg width="1200" height="720" viewBox="0 0 1200 720" fill="none" xmlns="http://www.w3.org/2000/svg">
  <rect width="1200" height="720" rx="48" fill="#101114"/>
  <rect x="54" y="54" width="1092" height="612" rx="34" fill="url(#bg)"/>
  <rect x="90" y="110" width="1020" height="126" rx="30" fill="#121826"/>
  <rect x="90" y="276" width="518" height="336" rx="30" fill="#121826"/>
  <rect x="642" y="276" width="468" height="336" rx="30" fill="#121826"/>
  <rect x="128" y="150" width="220" height="18" rx="9" fill="#334155"/>
  <path d="M442 174C479.333 141.333 514 141.333 546 174C578 206.667 612.667 206.667 650 174C687.333 141.333 722 141.333 754 174C786 206.667 820.667 206.667 858 174C895.333 141.333 930 141.333 962 174" stroke="url(#wave)" stroke-width="16" stroke-linecap="round"/>
  <rect x="126" y="326" width="180" height="18" rx="9" fill="#334155"/>
  <rect x="126" y="378" width="328" height="74" rx="24" fill="url(#task)"/>
  <rect x="126" y="476" width="286" height="74" rx="24" fill="#182030"/>
  <rect x="682" y="332" width="270" height="24" rx="12" fill="#334155"/>
  <rect x="682" y="384" width="314" height="110" rx="28" fill="#172554"/>
  <circle cx="706" cy="440" r="16" fill="#22D3EE"/>
  <rect x="740" y="428" width="186" height="18" rx="9" fill="#BFDBFE"/>
  <rect x="682" y="528" width="248" height="18" rx="9" fill="#334155"/>
  <defs>
    <linearGradient id="bg" x1="54" y1="54" x2="1146" y2="666" gradientUnits="userSpaceOnUse">
      <stop stop-color="#121826"/>
      <stop offset="1" stop-color="#0D111A"/>
    </linearGradient>
    <linearGradient id="wave" x1="442" y1="174" x2="962" y2="174" gradientUnits="userSpaceOnUse">
      <stop stop-color="#22D3EE"/>
      <stop offset="0.5" stop-color="#60A5FA"/>
      <stop offset="1" stop-color="#8B5CF6"/>
    </linearGradient>
    <linearGradient id="task" x1="126" y1="378" x2="454" y2="452" gradientUnits="userSpaceOnUse">
      <stop stop-color="#60A5FA"/>
      <stop offset="1" stop-color="#22D3EE"/>
    </linearGradient>
  </defs>
</svg>
