<svg width="1200" height="720" viewBox="0 0 1200 720" fill="none" xmlns="http://www.w3.org/2000/svg">
  <rect width="1200" height="720" rx="48" fill="#101115"/>
  <rect x="56" y="56" width="1088" height="608" rx="34" fill="url(#bg)"/>
  <rect x="92" y="112" width="312" height="496" rx="30" fill="#121826"/>
  <rect x="438" y="112" width="618" height="496" rx="30" fill="#121826"/>
  <path d="M486 176H1008" stroke="#203047" stroke-width="2" stroke-dasharray="12 12"/>
  <path d="M486 254H1008" stroke="#203047" stroke-width="2" stroke-dasharray="12 12"/>
  <path d="M486 332H1008" stroke="#203047" stroke-width="2" stroke-dasharray="12 12"/>
  <path d="M486 410H1008" stroke="#203047" stroke-width="2" stroke-dasharray="12 12"/>
  <path d="M486 488H1008" stroke="#203047" stroke-width="2" stroke-dasharray="12 12"/>
  <path d="M564 144V576" stroke="#203047" stroke-width="2" stroke-dasharray="12 12"/>
  <path d="M688 144V576" stroke="#203047" stroke-width="2" stroke-dasharray="12 12"/>
  <path d="M812 144V576" stroke="#203047" stroke-width="2" stroke-dasharray="12 12"/>
  <path d="M936 144V576" stroke="#203047" stroke-width="2" stroke-dasharray="12 12"/>
  <path d="M530 490C588 436 640 338 708 338C778 338 796 470 870 470C928 470 972 396 1014 322" stroke="url(#route)" stroke-width="18" stroke-linecap="round"/>
  <circle cx="530" cy="490" r="20" fill="#22D3EE"/>
  <circle cx="708" cy="338" r="20" fill="#60A5FA"/>
  <circle cx="870" cy="470" r="20" fill="#A78BFA"/>
  <circle cx="1014" cy="322" r="20" fill="#F472B6"/>
  <rect x="130" y="152" width="150" height="18" rx="9" fill="#334155"/>
  <rect x="130" y="204" width="236" height="88" rx="28" fill="#162133"/>
  <rect x="130" y="330" width="236" height="88" rx="28" fill="url(#panel)"/>
  <rect x="130" y="456" width="236" height="88" rx="28" fill="#162133"/>
  <defs>
    <linearGradient id="bg" x1="56" y1="56" x2="1144" y2="664" gradientUnits="userSpaceOnUse">
      <stop stop-color="#121826"/>
      <stop offset="1" stop-color="#0D111A"/>
    </linearGradient>
    <linearGradient id="route" x1="530" y1="322" x2="1014" y2="490" gradientUnits="userSpaceOnUse">
      <stop stop-color="#22D3EE"/>
      <stop offset="0.5" stop-color="#60A5FA"/>
      <stop offset="1" stop-color="#8B5CF6"/>
    </linearGradient>
    <linearGradient id="panel" x1="130" y1="330" x2="366" y2="418" gradientUnits="userSpaceOnUse">
      <stop stop-color="#60A5FA"/>
      <stop offset="1" stop-color="#1E293B"/>
    </linearGradient>
  </defs>
</svg>
