<svg width="1200" height="720" viewBox="0 0 1200 720" fill="none" xmlns="http://www.w3.org/2000/svg">
  <rect width="1200" height="720" rx="48" fill="#0F1013"/>
  <rect x="50" y="50" width="1100" height="620" rx="34" fill="url(#bg)"/>
  <rect x="92" y="116" width="412" height="486" rx="32" fill="#111827"/>
  <rect x="542" y="116" width="566" height="486" rx="32" fill="#111827"/>
  <rect x="132" y="164" width="210" height="82" rx="28" fill="url(#bubble1)"/>
  <rect x="164" y="192" width="112" height="12" rx="6" fill="#04121E"/>
  <rect x="244" y="286" width="196" height="78" rx="28" fill="#18212C"/>
  <rect x="274" y="314" width="124" height="12" rx="6" fill="#7DD3FC"/>
  <rect x="132" y="404" width="252" height="84" rx="28" fill="#17202B"/>
  <rect x="164" y="436" width="146" height="12" rx="6" fill="#93C5FD"/>
  <circle cx="762" cy="248" r="48" fill="url(#node)"/>
  <circle cx="942" cy="248" r="48" fill="url(#node)"/>
  <circle cx="852" cy="406" r="48" fill="url(#node)"/>
  <path d="M762 248H942" stroke="#334155" stroke-width="18" stroke-linecap="round"/>
  <path d="M785 287L829 367" stroke="#334155" stroke-width="18" stroke-linecap="round"/>
  <path d="M919 287L875 367" stroke="#334155" stroke-width="18" stroke-linecap="round"/>
  <rect x="690" y="500" width="320" height="54" rx="20" fill="#172554"/>
  <rect x="690" y="574" width="252" height="12" rx="6" fill="#334155"/>
  <rect x="132" y="534" width="202" height="20" rx="10" fill="#334155"/>
  <defs>
    <linearGradient id="bg" x1="50" y1="50" x2="1150" y2="670" gradientUnits="userSpaceOnUse">
      <stop stop-color="#121826"/>
      <stop offset="1" stop-color="#0C1017"/>
    </linearGradient>
    <linearGradient id="bubble1" x1="132" y1="164" x2="342" y2="246" gradientUnits="userSpaceOnUse">
      <stop stop-color="#22D3EE"/>
      <stop offset="1" stop-color="#60A5FA"/>
    </linearGradient>
    <linearGradient id="node" x1="714" y1="200" x2="990" y2="454" gradientUnits="userSpaceOnUse">
      <stop stop-color="#60A5FA"/>
      <stop offset="1" stop-color="#8B5CF6"/>
    </linearGradient>
  </defs>
</svg>
